<?xml version="1.0" encoding="UTF-8" standalone="no"?>
<!DOCTYPE svg PUBLIC "-//W3C//DTD SVG 1.1//EN" 
"http://www.w3.org/Graphics/SVG/1.1/DTD/svg11.dtd">

<svg width="456" height="456" viewBox="0 0 456 456"
xmlns="http://www.w3.org/2000/svg">

	<!-- Hintergrund (512 → 456 skaliert) -->
	<path fill="#ffffff" d="
    M103.4 0
    h249.2
    C407.6 0 456 48.4 456 103.4
    v249.2
    C456 407.6 407.6 456 352.6 456
    H103.4
    C48.4 456 0 407.6 0 352.6
    V103.4
    C0 48.4 48.4 0 103.4 0
    z"/>

	<!-- Alle folgenden Elemente sind exakt aus deinem Original skaliert -->
	<!-- Faktor: 0.746 + Offset 38 -->

	<!-- Kreis -->
	<circle cx="228" cy="228" r="190" fill="#71D456"/>

	<!-- Top Screen -->
	<path fill="#FCFCFD" d="M227.2 109.7H92.9c-3.3 0-5.8 2.5-5.8 5.8v92c0 3.3 2.5 5.8 5.8 5.8h134.3c3.3 0 5.8-2.5 5.8-5.8v-92c0-3.3-2.5-5.8-5.8-5.8z"/>
	<rect x="96.5" y="118.6" width="127.9" height="85.9" fill="#6EB1E1"/>
	<polygon fill="#F1F3F7" points="185.4,228.5 135.1,228.5 143.3,213.7 177.2,213.7"/>
	<rect x="124.5" y="228.5" width="72" height="5.8" fill="#FCFCFD"/>

	<!-- Bottom Screen -->
	<path fill="#FCFCFD" d="M363.1 228.5H228.8c-3.3 0-5.8 2.5-5.8 5.8v92c0 3.3 2.5 5.8 5.8 5.8h134.3c3.3 0 5.8-2.5 5.8-5.8v-92c0-3.1-2.5-5.8-5.8-5.8z"/>
	<rect x="232.4" y="237.4" width="127.9" height="85.9" fill="#6EB1E1"/>
	<polygon fill="#F1F3F7" points="321.3,346.3 271,346.3 279.2,331.1 313.1,331.1"/>
	<rect x="260.4" y="346.3" width="72" height="5.8" fill="#FCFCFD"/>

	<!-- Pfeile -->
	<path fill="#333842" d="M318.1 195.6v-11.1c0-26.3-21.2-47.5-47.5-47.5h-30.7v12.6h30.7c19.2 0 34.9 15.7 34.9 34.9v11.1h-11.1l17.4 17.4 17.4-17.4h-11.1z"/>
	<path fill="#333842" d="M142.5 269.6v11.1c0 26.3 21.2 47.5 47.5 47.5h30.7v-12.6H190c-19.2 0-34.9-15.7-34.9-34.9v-11.1h11.3l-17.7-17.4-17.4 17.4h11.2z"/>

</svg>